<svg data-v-423bf9ae="" xmlns="http://www.w3.org/2000/svg" viewBox="0 0 307.43117905497877 60" class="font"><!----><!----><!----><g data-v-423bf9ae="" id="b64b04d4-17be-4d81-a829-b6e8ace109c2" fill="black" transform="matrix(4.587155990059039,0,0,4.587155990059039,-1.4678916044139498,-29.40366824265967)"><path d="M5.57 12.05L5.57 12.05Q5.57 11.89 5.28 11.76Q5.00 11.63 4.41 11.63L4.41 11.63Q4.11 11.63 3.92 11.67Q3.73 11.70 3.62 11.76Q3.51 11.83 3.48 11.92Q3.44 12.00 3.44 12.12L3.44 12.12Q3.44 12.35 3.66 12.51Q3.88 12.68 4.23 12.84Q4.59 13.00 5.05 13.15Q5.51 13.31 5.99 13.51Q6.47 13.71 6.92 13.98Q7.38 14.24 7.74 14.60Q8.10 14.96 8.32 15.44Q8.54 15.91 8.54 16.54L8.54 16.54Q8.54 17.32 8.19 17.87Q7.83 18.43 7.26 18.79Q6.69 19.15 5.95 19.32Q5.22 19.49 4.45 19.49L4.45 19.49Q3.68 19.49 2.94 19.33Q2.19 19.17 1.61 18.88Q1.03 18.59 0.68 18.19Q0.32 17.79 0.32 17.30L0.32 17.30Q0.32 17.01 0.41 16.80Q0.50 16.58 0.65 16.44Q0.79 16.30 0.98 16.24Q1.18 16.17 1.38 16.17L1.38 16.17Q1.71 16.17 1.92 16.24Q2.13 16.32 2.27 16.44Q2.40 16.56 2.48 16.71Q2.56 16.86 2.64 17.03Q2.71 17.19 2.80 17.35Q2.89 17.50 3.04 17.62Q3.19 17.74 3.43 17.81Q3.66 17.89 4.03 17.89L4.03 17.89Q4.61 17.89 4.88 17.79Q5.16 17.68 5.16 17.38L5.16 17.38Q5.16 17.27 4.96 17.17Q4.76 17.06 4.43 16.95Q4.10 16.83 3.68 16.69Q3.25 16.54 2.82 16.35Q2.38 16.15 1.96 15.90Q1.53 15.64 1.20 15.30Q0.88 14.96 0.67 14.53Q0.47 14.09 0.47 13.54L0.47 13.54Q0.47 12.93 0.62 12.44Q0.77 11.96 1.04 11.60Q1.31 11.23 1.69 10.98Q2.06 10.73 2.51 10.56Q2.95 10.40 3.45 10.33Q3.95 10.26 4.48 10.26L4.48 10.26Q5.39 10.26 6.04 10.43Q6.69 10.60 7.11 10.87Q7.53 11.14 7.72 11.47Q7.92 11.80 7.92 12.12L7.92 12.12Q7.92 12.35 7.83 12.55Q7.74 12.75 7.56 12.90Q7.38 13.05 7.13 13.14Q6.88 13.23 6.55 13.23L6.55 13.23Q6.18 13.23 5.94 13.19Q5.71 13.15 5.57 13.07Q5.43 13.00 5.37 12.90Q5.32 12.80 5.32 12.68L5.32 12.68Q5.32 12.56 5.36 12.50Q5.40 12.43 5.44 12.38Q5.49 12.32 5.53 12.25Q5.57 12.18 5.57 12.05ZM10.06 8.11L10.06 8.11Q10.06 7.77 10.18 7.51Q10.30 7.25 10.49 7.06Q10.68 6.88 10.92 6.75Q11.16 6.62 11.41 6.55Q11.66 6.47 11.88 6.44Q12.11 6.41 12.28 6.41L12.28 6.41Q12.47 6.41 12.70 6.44Q12.94 6.47 13.19 6.55Q13.43 6.62 13.67 6.75Q13.91 6.88 14.10 7.06Q14.29 7.25 14.40 7.51Q14.51 7.77 14.51 8.11L14.51 8.11Q14.51 8.44 14.40 8.70Q14.29 8.96 14.10 9.15Q13.91 9.33 13.67 9.46Q13.43 9.58 13.19 9.66Q12.94 9.73 12.70 9.77Q12.47 9.80 12.28 9.80L12.28 9.80Q12.11 9.80 11.88 9.77Q11.66 9.73 11.41 9.66Q11.16 9.58 10.92 9.46Q10.68 9.33 10.49 9.15Q10.30 8.96 10.18 8.71Q10.06 8.45 10.06 8.11ZM14.30 12.05L14.30 16.71Q14.30 16.99 14.38 17.14Q14.45 17.29 14.56 17.37Q14.68 17.45 14.81 17.47Q14.94 17.50 15.05 17.53Q15.16 17.57 15.24 17.63Q15.31 17.70 15.31 17.85L15.31 17.85Q15.31 18.63 14.51 18.97Q13.70 19.32 12.17 19.32L12.17 19.32Q11.44 19.32 10.87 19.24Q10.30 19.15 9.91 18.97Q9.52 18.79 9.32 18.52Q9.12 18.24 9.12 17.85L9.12 17.85Q9.12 17.70 9.19 17.63Q9.27 17.57 9.38 17.53Q9.49 17.50 9.62 17.47Q9.75 17.45 9.86 17.37Q9.97 17.29 10.04 17.14Q10.12 16.99 10.12 16.71L10.12 16.71L10.12 13.06Q10.12 12.79 10.04 12.64Q9.97 12.49 9.86 12.41Q9.75 12.33 9.62 12.30Q9.49 12.28 9.38 12.24Q9.27 12.21 9.19 12.14Q9.12 12.08 9.12 11.93L9.12 11.93Q9.12 11.54 9.32 11.26Q9.52 10.99 9.91 10.80Q10.30 10.62 10.87 10.54Q11.44 10.46 12.17 10.46L12.17 10.46Q12.91 10.46 13.34 10.53Q13.76 10.61 13.98 10.79Q14.19 10.97 14.25 11.28Q14.30 11.59 14.30 12.05L14.30 12.05ZM26.41 11.10L26.41 11.10Q26.52 11.03 26.71 10.89Q26.90 10.75 27.27 10.61Q27.64 10.47 28.25 10.36Q28.85 10.26 29.81 10.26L29.81 10.26Q30.53 10.26 31.06 10.43Q31.60 10.60 31.98 10.90Q32.35 11.19 32.60 11.59Q32.85 11.99 32.99 12.45Q33.13 12.91 33.19 13.41Q33.24 13.91 33.24 14.40L33.24 14.40L33.24 14.47Q33.24 15.29 33.23 15.73Q33.23 16.17 33.23 16.37Q33.23 16.58 33.23 16.61Q33.23 16.65 33.23 16.65L33.23 16.65Q33.23 16.94 33.30 17.10Q33.38 17.26 33.49 17.35Q33.61 17.43 33.74 17.46Q33.87 17.49 33.98 17.53Q34.10 17.57 34.17 17.63Q34.25 17.70 34.25 17.85L34.25 17.85Q34.25 18.24 34.05 18.52Q33.86 18.79 33.48 18.97Q33.11 19.15 32.56 19.24Q32.01 19.32 31.29 19.32L31.29 19.32Q30.60 19.32 30.07 19.24Q29.53 19.15 29.16 18.97Q28.79 18.79 28.60 18.52Q28.41 18.24 28.41 17.85L28.41 17.85Q28.41 17.70 28.46 17.63Q28.51 17.57 28.59 17.53Q28.66 17.50 28.75 17.47Q28.84 17.45 28.92 17.37Q28.99 17.29 29.04 17.14Q29.09 16.99 29.09 16.71L29.09 16.71L29.09 13.77Q29.09 13.36 29.04 13.03Q28.99 12.70 28.88 12.48Q28.76 12.25 28.56 12.13Q28.37 12.01 28.08 12.01L28.08 12.01Q27.62 12.01 27.42 12.29Q27.22 12.58 27.22 13.03L27.22 13.03L27.22 16.63Q27.22 16.93 27.28 17.09Q27.33 17.25 27.42 17.34Q27.50 17.42 27.60 17.46Q27.70 17.49 27.78 17.53Q27.87 17.57 27.92 17.63Q27.98 17.70 27.98 17.85L27.98 17.85Q27.98 18.24 27.83 18.52Q27.67 18.79 27.35 18.97Q27.02 19.15 26.51 19.24Q26.00 19.32 25.29 19.32L25.29 19.32Q24.60 19.32 24.06 19.24Q23.52 19.15 23.15 18.97Q22.78 18.79 22.59 18.52Q22.40 18.24 22.40 17.85L22.40 17.85Q22.40 17.70 22.45 17.63Q22.50 17.57 22.58 17.53Q22.65 17.50 22.75 17.47Q22.84 17.45 22.91 17.37Q22.99 17.29 23.04 17.14Q23.09 16.99 23.09 16.71L23.09 16.71L23.09 13.77Q23.09 12.94 22.89 12.48Q22.69 12.02 22.17 12.02L22.17 12.02Q21.96 12.02 21.78 12.10Q21.59 12.17 21.45 12.31Q21.31 12.46 21.23 12.65Q21.14 12.84 21.14 13.06L21.14 13.06L21.14 16.69Q21.14 16.97 21.20 17.12Q21.26 17.28 21.35 17.36Q21.44 17.44 21.54 17.47Q21.65 17.50 21.74 17.53Q21.83 17.57 21.89 17.63Q21.94 17.70 21.94 17.85L21.94 17.85Q21.94 18.63 21.17 18.97Q20.39 19.32 18.94 19.32L18.94 19.32Q18.23 19.32 17.68 19.24Q17.12 19.15 16.74 18.97Q16.37 18.79 16.16 18.52Q15.96 18.24 15.96 17.85L15.96 17.85Q15.96 17.70 16.04 17.63Q16.11 17.57 16.22 17.53Q16.33 17.50 16.46 17.47Q16.59 17.45 16.70 17.37Q16.81 17.29 16.88 17.14Q16.96 16.99 16.96 16.71L16.96 16.71L16.96 13.06Q16.96 12.79 16.88 12.64Q16.81 12.49 16.70 12.41Q16.59 12.33 16.46 12.30Q16.33 12.28 16.22 12.24Q16.11 12.21 16.04 12.14Q15.96 12.08 15.96 11.93L15.96 11.93Q15.96 11.54 16.16 11.26Q16.36 10.99 16.74 10.80Q17.12 10.62 17.66 10.54Q18.21 10.46 18.90 10.46L18.90 10.46Q19.22 10.46 19.47 10.49Q19.72 10.52 19.92 10.57Q20.11 10.62 20.25 10.69Q20.40 10.75 20.50 10.82L20.50 10.82Q20.74 10.99 20.84 11.18L20.84 11.18Q21.17 10.93 21.64 10.73L21.64 10.73Q22.05 10.55 22.63 10.40Q23.21 10.26 23.99 10.26L23.99 10.26Q24.79 10.26 25.42 10.49Q26.04 10.72 26.41 11.10ZM39.72 12.01L39.72 12.01Q39.50 12.01 39.31 12.11Q39.12 12.21 38.98 12.41Q38.84 12.62 38.76 12.94Q38.68 13.25 38.68 13.69L38.68 13.69L40.87 13.69Q40.87 13.21 40.79 12.89Q40.71 12.56 40.57 12.37Q40.43 12.17 40.21 12.09Q40.00 12.01 39.72 12.01ZM39.22 10.26L39.22 10.26Q40.13 10.26 40.87 10.53Q41.60 10.81 42.12 11.29Q42.64 11.76 42.91 12.41Q43.19 13.06 43.19 13.80L43.19 13.80Q43.19 14.11 43.10 14.28Q43.02 14.45 42.86 14.53Q42.70 14.62 42.47 14.64Q42.24 14.66 41.95 14.66L41.95 14.66L38.66 14.66Q38.66 15.41 38.81 15.88Q38.96 16.34 39.24 16.60Q39.51 16.86 39.89 16.96Q40.28 17.05 40.74 17.05L40.74 17.05Q40.99 17.05 41.25 17.00Q41.51 16.95 41.76 16.88Q42 16.80 42.21 16.72Q42.41 16.64 42.55 16.56L42.55 16.56Q42.66 16.50 42.76 16.50L42.76 16.50Q42.92 16.50 43.00 16.64Q43.09 16.77 43.09 16.93L43.09 16.93Q43.09 16.99 43.09 17.04Q43.08 17.08 43.06 17.13L43.06 17.13Q42.86 17.64 42.52 18.07Q42.18 18.50 41.69 18.82Q41.20 19.13 40.56 19.31Q39.92 19.49 39.12 19.49L39.12 19.49Q38.35 19.49 37.72 19.31Q37.08 19.13 36.58 18.80Q36.07 18.48 35.68 18.04Q35.30 17.60 35.05 17.09Q34.79 16.57 34.67 16.01Q34.54 15.44 34.54 14.87L34.54 14.87Q34.54 14.29 34.67 13.72Q34.80 13.15 35.06 12.63Q35.32 12.12 35.71 11.69Q36.10 11.25 36.62 10.93Q37.14 10.62 37.79 10.44Q38.44 10.26 39.22 10.26ZM48.62 19.49L48.62 19.49Q47.81 19.49 47.13 19.30Q46.45 19.11 45.91 18.77Q45.36 18.44 44.95 17.99Q44.54 17.54 44.27 17.02Q44.00 16.50 43.86 15.93Q43.72 15.36 43.72 14.79L43.72 14.79Q43.72 14.21 43.87 13.65Q44.02 13.08 44.31 12.58Q44.61 12.07 45.06 11.65Q45.50 11.22 46.10 10.92Q46.70 10.61 47.44 10.44Q48.19 10.26 49.10 10.26L49.10 10.26Q49.89 10.26 50.55 10.44Q51.21 10.62 51.74 10.93Q52.27 11.24 52.67 11.66Q53.07 12.09 53.34 12.58Q53.61 13.08 53.74 13.64Q53.87 14.19 53.87 14.75L53.87 14.75Q53.87 15.33 53.73 15.91Q53.59 16.50 53.30 17.02Q53.01 17.55 52.57 18.00Q52.13 18.45 51.55 18.78Q50.96 19.11 50.23 19.30Q49.50 19.49 48.62 19.49ZM48.93 17.74L48.93 17.74Q49.16 17.74 49.31 17.61Q49.46 17.47 49.56 17.22Q49.66 16.97 49.70 16.61Q49.74 16.25 49.74 15.80L49.74 15.80Q49.74 15.42 49.73 14.98Q49.72 14.55 49.70 14.13Q49.67 13.71 49.61 13.32Q49.55 12.94 49.43 12.65Q49.32 12.35 49.15 12.18Q48.98 12.01 48.73 12.01L48.73 12.01Q48.49 12.01 48.33 12.14Q48.16 12.28 48.05 12.52Q47.94 12.76 47.89 13.09Q47.84 13.43 47.84 13.83L47.84 13.83Q47.84 14.21 47.85 14.64Q47.87 15.08 47.91 15.51Q47.95 15.95 48.03 16.35Q48.10 16.75 48.22 17.06Q48.34 17.37 48.52 17.55Q48.69 17.74 48.93 17.74ZM59.70 13.06L59.68 16.69Q59.68 16.97 59.76 17.12Q59.83 17.28 59.95 17.36Q60.06 17.44 60.19 17.47Q60.32 17.50 60.43 17.53Q60.55 17.57 60.62 17.63Q60.70 17.70 60.70 17.85L60.70 17.85Q60.70 18.63 59.89 18.97Q59.08 19.32 57.56 19.32L57.56 19.32Q56.82 19.32 56.25 19.24Q55.69 19.15 55.30 18.97Q54.91 18.79 54.70 18.52Q54.50 18.24 54.50 17.85L54.50 17.85Q54.50 17.70 54.58 17.63Q54.65 17.57 54.76 17.53Q54.87 17.50 55.00 17.47Q55.13 17.45 55.24 17.37Q55.35 17.29 55.43 17.14Q55.50 16.99 55.50 16.71L55.50 16.71L55.50 13.06Q55.50 12.79 55.43 12.64Q55.35 12.49 55.24 12.41Q55.13 12.33 55.00 12.30Q54.87 12.28 54.76 12.24Q54.65 12.21 54.58 12.14Q54.50 12.08 54.50 11.93L54.50 11.93Q54.50 11.54 54.70 11.26Q54.91 10.99 55.30 10.80Q55.69 10.62 56.25 10.54Q56.82 10.46 57.56 10.46L57.56 10.46Q58.23 10.46 58.63 10.57Q59.02 10.68 59.24 10.82L59.24 10.82Q59.49 10.99 59.59 11.18L59.59 11.18Q59.94 10.93 60.44 10.73L60.44 10.73Q60.86 10.55 61.47 10.40Q62.08 10.26 62.90 10.26L62.90 10.26Q63.66 10.26 64.20 10.45Q64.74 10.64 65.12 10.95Q65.50 11.27 65.73 11.69Q65.97 12.11 66.09 12.57Q66.22 13.03 66.26 13.50Q66.31 13.97 66.31 14.39L66.31 14.39L66.31 16.65Q66.31 16.94 66.38 17.10Q66.46 17.26 66.58 17.35Q66.69 17.43 66.82 17.46Q66.96 17.49 67.07 17.53Q67.19 17.57 67.27 17.63Q67.34 17.70 67.34 17.85L67.34 17.85Q67.34 18.63 66.54 18.97Q65.73 19.32 64.21 19.32L64.21 19.32Q63.47 19.32 62.90 19.24Q62.34 19.15 61.95 18.97Q61.56 18.79 61.36 18.52Q61.15 18.24 61.15 17.85L61.15 17.85Q61.15 17.70 61.23 17.63Q61.30 17.57 61.42 17.53Q61.54 17.50 61.67 17.47Q61.80 17.45 61.91 17.37Q62.03 17.29 62.10 17.14Q62.18 16.99 62.18 16.71L62.18 16.71L62.18 13.79Q62.18 13.37 62.11 13.04Q62.05 12.71 61.90 12.48Q61.74 12.25 61.49 12.13Q61.24 12.01 60.86 12.01L60.86 12.01Q60.62 12.01 60.41 12.09Q60.20 12.17 60.04 12.31Q59.88 12.45 59.79 12.64Q59.70 12.84 59.70 13.06L59.70 13.06Z"></path></g><!----><!----></svg>