<svg data-v-423bf9ae="" xmlns="http://www.w3.org/2000/svg" viewBox="0 0 468.6097605043154 60" class="font"><!----><!----><!----><g data-v-423bf9ae="" id="4ecf0a75-efbc-4b2a-a423-4193c3ea160c" fill="white" transform="matrix(5.7526364568010235,0,0,5.7526364568010235,-0.4602033477129055,-1.6107389002153774)"><path d="M4.68 10.71L8.82 0.49L6.51 0.49L5.17 3.89L4.45 5.89L3.72 3.82L2.39 0.49L0.08 0.49L4.23 10.71ZM12.04 10.50L12.04 0.49L10.04 0.49L10.04 10.50L12.04 10.50L12.04 10.50ZM21.52 9.88L21.52 9.88L21.52 5.49L19.49 5.49L19.49 8.50C19.31 8.53 19.11 8.55 18.93 8.55C15.06 8.55 14.88 2.58 18.93 2.44C19.99 2.41 20.64 2.63 21.03 2.80L21.27 0.77C21.08 0.71 20.12 0.36 18.93 0.41C11.98 0.66 12.32 10.56 18.93 10.56C19.88 10.56 20.75 10.32 21.52 9.88ZM28.53 10.64L28.53 10.64C35.42 10.64 35.42 0.32 28.53 0.32C21.64 0.32 21.64 10.64 28.53 10.64ZM28.53 8.57L28.53 8.57C24.53 8.57 24.53 2.38 28.53 2.38C32.54 2.38 32.54 8.57 28.53 8.57ZM37.58 5.05L37.58 5.05L42.64 10.71L43.18 10.71L43.18 0.50L41.16 0.50L41.16 6.16L36.11 0.28L35.57 0.28L35.57 10.50L37.58 10.50L37.58 5.05ZM47.43 10.50L47.43 6.68L49.36 6.68C53.24 6.68 53.26 0.50 49.36 0.50L45.43 0.50L45.43 10.50L47.43 10.50L47.43 10.50ZM47.43 4.73L47.43 2.49L49.20 2.49C50.54 2.49 50.54 4.73 49.20 4.73L47.43 4.73L47.43 4.73ZM61.12 10.50L61.12 10.50L58.80 6.37C61.74 5.52 61.39 0.49 57.82 0.49L53.87 0.49L53.87 10.50L55.87 10.50L55.87 6.68L56.84 6.68L58.86 10.50ZM55.87 2.49L57.64 2.49C59.00 2.49 59.00 4.73 57.64 4.73L55.87 4.73L55.87 4.73ZM67.27 10.64L67.27 10.64C74.16 10.64 74.16 0.32 67.27 0.32C60.38 0.32 60.38 10.64 67.27 10.64ZM67.27 8.57L67.27 8.57C63.27 8.57 63.27 2.38 67.27 2.38C71.27 2.38 71.27 8.57 67.27 8.57ZM81.54 9.88L81.54 9.88L81.54 5.49L79.51 5.49L79.51 8.50C79.32 8.53 79.13 8.55 78.95 8.55C75.08 8.55 74.90 2.58 78.95 2.44C80.01 2.41 80.65 2.63 81.05 2.80L81.28 0.77C81.10 0.71 80.14 0.36 78.95 0.41C72.00 0.66 72.34 10.56 78.95 10.56C79.90 10.56 80.77 10.32 81.54 9.88Z"></path></g><!----><!----></svg>