<svg data-v-423bf9ae="" xmlns="http://www.w3.org/2000/svg" viewBox="0 0 316.9285964442763 60" class="font"><!----><!----><!----><g data-v-423bf9ae="" id="a804d9de-d1ec-432e-9eec-e6af794af5dc" fill="black" transform="matrix(5.357142948374458,0,0,5.357142948374458,-2.2500020685246795,-5.62499960192612)"><path d="M2.79 12.00L0.43 1.36Q0.42 1.31 0.42 1.26L0.42 1.26Q0.42 1.05 0.68 1.05L0.68 1.05L2.02 1.05Q2.26 1.05 2.32 1.30L2.32 1.30L3.79 8.80L5.28 1.30Q5.34 1.05 5.58 1.05L5.58 1.05L6.92 1.05Q7.18 1.05 7.18 1.26L7.18 1.26Q7.18 1.31 7.17 1.36L7.17 1.36L4.80 12.00Q4.74 12.25 4.49 12.25L4.49 12.25L3.10 12.25Q2.85 12.25 2.79 12.00L2.79 12.00ZM8.30 2.67L8.30 12.02Q8.30 12.25 8.52 12.25L8.52 12.25L9.98 12.25Q10.08 12.25 10.14 12.19Q10.21 12.13 10.21 12.02L10.21 12.02L10.21 2.67Q10.21 2.57 10.14 2.51Q10.08 2.45 9.98 2.45L9.98 2.45L8.52 2.45Q8.30 2.45 8.30 2.67L8.30 2.67ZM11.60 10.23L11.60 10.23L11.60 4.46Q11.60 3.47 12.11 2.96Q12.63 2.45 13.62 2.45L13.62 2.45L15.19 2.45Q16.17 2.45 16.69 2.96Q17.21 3.48 17.21 4.46L17.21 4.46L17.21 5.50Q17.21 5.61 17.14 5.67Q17.08 5.73 16.98 5.73L16.98 5.73L15.66 5.73Q15.44 5.73 15.44 5.50L15.44 5.50L15.44 4.82Q15.44 4.26 14.88 4.26L14.88 4.26L13.99 4.26Q13.43 4.26 13.43 4.82L13.43 4.82L13.43 9.88Q13.43 10.45 13.99 10.45L13.99 10.45L14.88 10.45Q15.44 10.45 15.44 9.88L15.44 9.88L15.44 8.67L14.71 8.67Q14.49 8.67 14.49 8.44L14.49 8.44L14.49 7.04Q14.49 6.82 14.71 6.82L14.71 6.82L16.98 6.82Q17.21 6.82 17.21 7.04L17.21 7.04L17.21 10.23Q17.21 11.22 16.69 11.73Q16.17 12.25 15.19 12.25L15.19 12.25L13.62 12.25Q12.63 12.25 12.11 11.74Q11.60 11.22 11.60 10.23ZM18.60 10.23L18.60 10.23L18.60 4.46Q18.60 3.47 19.11 2.96Q19.63 2.45 20.62 2.45L20.62 2.45L22.19 2.45Q23.18 2.45 23.69 2.96Q24.21 3.47 24.21 4.46L24.21 4.46L24.21 10.23Q24.21 11.22 23.69 11.74Q23.18 12.25 22.19 12.25L22.19 12.25L20.62 12.25Q19.63 12.25 19.11 11.74Q18.60 11.22 18.60 10.23ZM20.43 4.82L20.43 9.88Q20.43 10.45 20.99 10.45L20.99 10.45L21.88 10.45Q22.44 10.45 22.44 9.88L22.44 9.88L22.44 4.82Q22.44 4.26 21.88 4.26L21.88 4.26L20.99 4.26Q20.43 4.26 20.43 4.82L20.43 4.82ZM25.60 12.02L25.60 12.02L25.60 2.67Q25.60 2.57 25.66 2.51Q25.72 2.45 25.83 2.45L25.83 2.45L26.93 2.45Q27.10 2.45 27.19 2.63L27.19 2.63L29.82 7.98L29.82 2.67Q29.82 2.45 30.04 2.45L30.04 2.45L31.36 2.45Q31.46 2.45 31.52 2.51Q31.58 2.57 31.58 2.67L31.58 2.67L31.58 12.02Q31.58 12.13 31.52 12.19Q31.46 12.25 31.36 12.25L31.36 12.25L30.25 12.25Q30.08 12.25 30.00 12.07L30.00 12.07L27.36 6.72L27.36 12.02Q27.36 12.25 27.15 12.25L27.15 12.25L25.83 12.25Q25.72 12.25 25.66 12.19Q25.60 12.13 25.60 12.02ZM32.98 12.02L32.98 12.02L32.98 1.27Q32.98 1.05 33.20 1.05L33.20 1.05L36.57 1.05Q37.56 1.05 38.07 1.57Q38.58 2.08 38.58 3.07L38.58 3.07L38.58 6.48Q38.58 7.46 38.07 7.98Q37.55 8.50 36.57 8.50L36.57 8.50L34.88 8.50L34.88 12.02Q34.88 12.25 34.66 12.25L34.66 12.25L33.20 12.25Q33.10 12.25 33.04 12.19Q32.98 12.13 32.98 12.02ZM34.88 2.90L34.88 6.65L36.11 6.65Q36.67 6.65 36.67 6.09L36.67 6.09L36.67 3.46Q36.67 2.90 36.11 2.90L36.11 2.90L34.88 2.90ZM39.98 12.02L39.98 12.02L39.98 2.67Q39.98 2.57 40.04 2.51Q40.10 2.45 40.20 2.45L40.20 2.45L43.57 2.45Q44.56 2.45 45.07 2.96Q45.58 3.47 45.58 4.46L45.58 4.46L45.58 7.28Q45.58 8.50 44.80 8.99L44.80 8.99L45.52 12.00Q45.58 12.25 45.33 12.25L45.33 12.25L43.96 12.25Q43.76 12.25 43.72 12.05L43.72 12.05L43.05 9.30L41.80 9.30L41.80 12.02Q41.80 12.13 41.74 12.19Q41.68 12.25 41.58 12.25L41.58 12.25L40.20 12.25Q40.10 12.25 40.04 12.19Q39.98 12.13 39.98 12.02ZM41.80 4.26L41.80 7.49L43.20 7.49Q43.76 7.49 43.76 6.93L43.76 6.93L43.76 4.82Q43.76 4.26 43.20 4.26L43.20 4.26L41.80 4.26ZM46.98 10.23L46.98 10.23L46.98 4.46Q46.98 3.47 47.49 2.96Q48.00 2.45 48.99 2.45L48.99 2.45L50.57 2.45Q51.56 2.45 52.07 2.96Q52.58 3.47 52.58 4.46L52.58 4.46L52.58 10.23Q52.58 11.22 52.07 11.74Q51.56 12.25 50.57 12.25L50.57 12.25L48.99 12.25Q48.00 12.25 47.49 11.74Q46.98 11.22 46.98 10.23ZM48.80 4.82L48.80 9.88Q48.80 10.45 49.36 10.45L49.36 10.45L50.26 10.45Q50.82 10.45 50.82 9.88L50.82 9.88L50.82 4.82Q50.82 4.26 50.26 4.26L50.26 4.26L49.36 4.26Q48.80 4.26 48.80 4.82L48.80 4.82ZM53.98 10.23L53.98 10.23L53.98 4.46Q53.98 3.47 54.49 2.96Q55.00 2.45 55.99 2.45L55.99 2.45L57.57 2.45Q58.54 2.45 59.06 2.96Q59.58 3.48 59.58 4.46L59.58 4.46L59.58 5.50Q59.58 5.61 59.52 5.67Q59.46 5.73 59.36 5.73L59.36 5.73L58.04 5.73Q57.82 5.73 57.82 5.50L57.82 5.50L57.82 4.82Q57.82 4.26 57.26 4.26L57.26 4.26L56.36 4.26Q55.80 4.26 55.80 4.82L55.80 4.82L55.80 9.88Q55.80 10.45 56.36 10.45L56.36 10.45L57.26 10.45Q57.82 10.45 57.82 9.88L57.82 9.88L57.82 8.67L57.09 8.67Q56.86 8.67 56.86 8.44L56.86 8.44L56.86 7.04Q56.86 6.82 57.09 6.82L57.09 6.82L59.36 6.82Q59.58 6.82 59.58 7.04L59.58 7.04L59.58 10.23Q59.58 11.22 59.06 11.73Q58.54 12.25 57.57 12.25L57.57 12.25L55.99 12.25Q55.00 12.25 54.49 11.74Q53.98 11.22 53.98 10.23Z"></path></g><!----><!----></svg>